<?xml version="1.0" encoding="UTF-8" standalone="no"?>
<!DOCTYPE svg PUBLIC "-//W3C//DTD SVG 1.1//EN" "http://www.w3.org/Graphics/SVG/1.1/DTD/svg11.dtd">
<svg width="100%" height="100%" viewBox="0 0 16 16" version="1.1" xmlns="http://www.w3.org/2000/svg" xmlns:xlink="http://www.w3.org/1999/xlink" xml:space="preserve" xmlns:serif="http://www.serif.com/" style="fill-rule:evenodd;clip-rule:evenodd;stroke-linejoin:round;stroke-miterlimit:2;">
    <g transform="matrix(0.619048,0,0,0.619048,0.583761,0.371361)">
        <path d="M6,22C5.45,22 4.979,21.804 4.588,21.413C4.196,21.021 4,20.55 4,20L4,10C4,9.45 4.196,8.979 4.588,8.587C4.979,8.196 5.45,8 6,8L7,8L7,6C7,4.617 7.488,3.438 8.463,2.462C9.438,1.487 10.617,1 12,1C13.383,1 14.563,1.487 15.538,2.462C16.513,3.438 17,4.617 17,6L17,8L18,8C18.55,8 19.021,8.196 19.413,8.587C19.804,8.979 20,9.45 20,10L20,20C20,20.55 19.804,21.021 19.413,21.413C19.021,21.804 18.55,22 18,22L6,22ZM12,17C12.55,17 13.021,16.804 13.413,16.413C13.804,16.021 14,15.55 14,15C14,14.45 13.804,13.979 13.413,13.587C13.021,13.196 12.55,13 12,13C11.45,13 10.979,13.196 10.588,13.587C10.196,13.979 10,14.45 10,15C10,15.55 10.196,16.021 10.588,16.413C10.979,16.804 11.45,17 12,17ZM9,8L15,8L15,6C15,5.167 14.708,4.458 14.125,3.875C13.542,3.292 12.833,3 12,3C11.167,3 10.458,3.292 9.875,3.875C9.292,4.458 9,5.167 9,6L9,8Z" style="fill:white;fill-rule:nonzero;"/>
    </g>
</svg>
